<svg xmlns="http://www.w3.org/2000/svg" viewBox="0 0 1024 1024" role="img" aria-label="VosMac icon candidate D">
  <defs>
    <linearGradient id="bg" x1="104" y1="88" x2="920" y2="940" gradientUnits="userSpaceOnUse">
      <stop offset="0" stop-color="#26384a"/>
      <stop offset="0.44" stop-color="#121a23"/>
      <stop offset="1" stop-color="#08090d"/>
    </linearGradient>
    <radialGradient id="disc" cx="44%" cy="32%" r="72%">
      <stop offset="0" stop-color="#f7fbff"/>
      <stop offset="0.22" stop-color="#9fd8ff"/>
      <stop offset="0.58" stop-color="#2d4a70"/>
      <stop offset="1" stop-color="#0a0e17"/>
    </radialGradient>
    <linearGradient id="keyGold" x1="0" y1="0" x2="0" y2="1">
      <stop offset="0" stop-color="#fff0a6"/>
      <stop offset="1" stop-color="#f1b13b"/>
    </linearGradient>
    <linearGradient id="keyBlue" x1="0" y1="0" x2="0" y2="1">
      <stop offset="0" stop-color="#d6f5ff"/>
      <stop offset="1" stop-color="#52c6ff"/>
    </linearGradient>
    <linearGradient id="keyGreen" x1="0" y1="0" x2="0" y2="1">
      <stop offset="0" stop-color="#d5ffe5"/>
      <stop offset="1" stop-color="#5edb99"/>
    </linearGradient>
    <filter id="shadow" x="-30%" y="-30%" width="160%" height="170%">
      <feDropShadow dx="0" dy="32" stdDeviation="30" flood-color="#000000" flood-opacity="0.42"/>
    </filter>
    <filter id="glow" x="-40%" y="-40%" width="180%" height="180%">
      <feDropShadow dx="0" dy="0" stdDeviation="12" flood-color="#80ddff" flood-opacity="0.48"/>
    </filter>
  </defs>
  <rect width="1024" height="1024" rx="228" fill="url(#bg)"/>
  <path d="M178 274c18-73 68-123 141-141 127-31 259-31 386 0 73 18 123 68 141 141 31 127 31 259 0 386-18 73-68 123-141 141-127 31-259 31-386 0-73-18-123-68-141-141-31-127-31-259 0-386Z" fill="#0f1722" opacity="0.72" filter="url(#shadow)"/>
  <g filter="url(#shadow)">
    <circle cx="512" cy="444" r="236" fill="url(#disc)"/>
    <circle cx="512" cy="444" r="154" fill="#111827" opacity="0.78"/>
    <circle cx="512" cy="444" r="72" fill="#050812"/>
    <circle cx="512" cy="444" r="24" fill="#95e2ff"/>
    <path d="M327 300c72-86 199-111 300-56" fill="none" stroke="#ffffff" stroke-opacity="0.24" stroke-width="24" stroke-linecap="round"/>
    <path d="M334 604c82 74 205 91 305 41" fill="none" stroke="#ffffff" stroke-opacity="0.13" stroke-width="18" stroke-linecap="round"/>
  </g>
  <g transform="translate(242 624)" filter="url(#glow)">
    <rect x="0" y="0" width="540" height="124" rx="42" fill="#111827"/>
    <rect x="36" y="30" width="60" height="64" rx="16" fill="url(#keyGold)"/>
    <rect x="104" y="30" width="50" height="64" rx="16" fill="url(#keyBlue)"/>
    <rect x="162" y="30" width="60" height="64" rx="16" fill="url(#keyGold)"/>
    <rect x="230" y="18" width="74" height="88" rx="18" fill="url(#keyGreen)"/>
    <rect x="312" y="30" width="60" height="64" rx="16" fill="url(#keyGold)"/>
    <rect x="380" y="30" width="50" height="64" rx="16" fill="url(#keyBlue)"/>
    <rect x="438" y="30" width="60" height="64" rx="16" fill="url(#keyGold)"/>
  </g>
  <g opacity="0.8">
    <rect x="282" y="282" width="54" height="58" rx="14" fill="url(#keyGold)" transform="rotate(-22 309 311)"/>
    <rect x="691" y="316" width="54" height="58" rx="14" fill="url(#keyBlue)" transform="rotate(22 718 345)"/>
    <rect x="650" y="528" width="54" height="58" rx="14" fill="url(#keyGreen)" transform="rotate(-16 677 557)"/>
  </g>
</svg>
